<?xml version="1.0" encoding="UTF-8"?>
<svg xmlns="http://www.w3.org/2000/svg" xmlns:xlink="http://www.w3.org/1999/xlink" width="300px" height="300px" viewBox="0 0 300 300" version="1.1">
<g id="surface1">
<path style=" stroke:none;fill-rule:nonzero;fill:rgb(43.921569%,77.647059%,74.509804%);fill-opacity:1;" d="M 152.003906 33.15625 C 154.851562 32.832031 157.816406 33.46875 160.195312 35.097656 C 163.78125 37.410156 166.316406 40.945312 168.460938 44.5625 C 178.1875 60.863281 187.976562 77.128906 197.699219 93.4375 C 210.640625 115.238281 223.589844 137.039062 236.5 158.867188 C 245.433594 173.960938 254.390625 189.046875 263.382812 204.109375 C 269.304688 214.171875 275.414062 224.128906 281.074219 234.339844 C 283.515625 238.613281 284.855469 243.550781 284.652344 248.484375 C 284.511719 252.300781 283.820312 256.21875 281.816406 259.527344 C 279.003906 264.1875 274.292969 267.480469 269.183594 269.199219 C 266.460938 270.175781 263.601562 270.84375 260.695312 270.847656 C 228.988281 270.835938 197.285156 270.859375 165.578125 270.855469 C 162.851562 270.785156 160.082031 270.472656 157.523438 269.484375 C 155.648438 268.6875 153.808594 267.703125 152.34375 266.269531 C 149.84375 263.796875 148.222656 260.289062 148.65625 256.726562 C 148.882812 254.234375 149.492188 251.78125 150.515625 249.5 C 151.511719 247.15625 152.910156 245.023438 154.125 242.796875 C 159.429688 233.339844 164.984375 224.023438 170.761719 214.84375 C 172.609375 211.957031 174.21875 208.835938 176.78125 206.488281 C 179.5 204 182.914062 202.046875 186.652344 201.792969 C 189.660156 201.667969 192.617188 202.707031 195.125 204.320312 C 197.953125 205.980469 200.179688 208.738281 200.921875 211.960938 C 202 216.035156 200.84375 220.316406 199.113281 224.042969 C 197.175781 228.269531 194.414062 232.109375 192.929688 236.542969 C 192.660156 237.554688 192.292969 238.824219 193.042969 239.714844 C 193.808594 240.433594 194.871094 240.714844 195.863281 240.964844 C 198.742188 241.605469 201.707031 241.441406 204.632812 241.460938 C 215.414062 241.457031 226.199219 241.460938 236.980469 241.460938 C 239.117188 241.421875 241.253906 241.53125 243.386719 241.40625 C 244.929688 241.230469 246.609375 240.976562 247.808594 239.902344 C 248.597656 239.203125 248.695312 238.019531 248.394531 237.0625 C 247.738281 234.9375 246.609375 233.003906 245.492188 231.097656 C 216.742188 182 188.148438 132.800781 159.097656 83.878906 C 158.148438 82.304688 157.332031 80.601562 155.972656 79.328125 C 155.300781 78.683594 154.308594 78.320312 153.394531 78.585938 C 152.613281 78.863281 152.085938 79.550781 151.570312 80.160156 C 150.289062 81.789062 149.144531 83.527344 148.09375 85.316406 C 143.085938 93.449219 138.296875 101.714844 133.390625 109.910156 C 105.140625 157.457031 76.886719 205 48.636719 252.550781 C 46.886719 255.777344 45.023438 258.941406 42.988281 262 C 41.203125 264.625 39.039062 267.085938 36.246094 268.667969 C 32.957031 270.570312 28.894531 271.324219 25.207031 270.234375 C 22.515625 269.402344 19.914062 268.050781 17.984375 265.960938 C 15.546875 263.542969 14.464844 260.011719 14.589844 256.628906 C 14.714844 253.070312 15.90625 249.597656 17.699219 246.542969 C 34.851562 217.40625 52.113281 188.332031 69.441406 159.300781 C 78.355469 144.25 87.226562 129.183594 96.191406 114.164062 C 105.257812 98.949219 114.347656 83.75 123.375 68.507812 C 128.410156 59.925781 133.484375 51.363281 138.777344 42.933594 C 140.402344 40.261719 142.507812 37.863281 145.042969 36.019531 C 147.125 34.601562 149.457031 33.382812 152.003906 33.15625 Z M 152.003906 33.15625 "/>
<path style=" stroke:none;fill-rule:nonzero;fill:rgb(10.588235%,62.745098%,84.705882%);fill-opacity:1;" d="M 150.5625 145.777344 C 154.835938 145.089844 159.363281 146.109375 162.902344 148.601562 C 165.59375 150.675781 167.457031 153.785156 167.996094 157.144531 C 168.363281 159.703125 168.113281 162.355469 167.171875 164.773438 C 166.449219 166.863281 165.414062 168.832031 164.257812 170.71875 C 147.78125 198.414062 131.308594 226.109375 114.832031 253.804688 C 112.722656 257.273438 110.800781 260.867188 108.371094 264.125 C 106.605469 266.308594 104.398438 268.164062 101.851562 269.371094 C 96.46875 272.238281 89.441406 270.488281 85.347656 266.175781 C 83.273438 264.09375 82.054688 261.234375 81.894531 258.308594 C 81.660156 255.277344 82.328125 252.214844 83.699219 249.515625 C 84.90625 246.890625 86.332031 244.375 87.820312 241.902344 C 95.0625 229.71875 102.238281 217.5 109.457031 205.304688 C 119.339844 188.539062 129.382812 171.867188 139.328125 155.136719 C 140.382812 153.234375 141.703125 151.480469 143.183594 149.890625 C 145.179688 147.863281 147.710938 146.222656 150.5625 145.777344 Z M 150.5625 145.777344 "/>
</g>
</svg>
